<svg xmlns="http://www.w3.org/2000/svg" viewBox="0 0 506.34 363.25"><defs><style>.cls-1{fill:#84451a;}.cls-2{fill:#f7ccb0;}.cls-3{fill:#e2b9a3;}.cls-4{fill:#bf6821;}.cls-5{fill:#a35b24;}.cls-6{fill:#935125;}.cls-7{fill:#ad5c1f;}.cls-8{fill:#a35b2b;}.cls-9{fill:#723b17;}.cls-10{fill:#934e28;}.cls-11{fill:#9e521e;}.cls-12,.cls-19{fill:#60290d;}.cls-13{fill:#893f0e;}.cls-14{fill:#72310d;}.cls-15{fill:#282828;}.cls-16{fill:#3a3a3a;}.cls-17{fill:#a04613;}.cls-18{fill:#af5c1e;}.cls-19{opacity:0.5;}.cls-20{fill:#773e18;}.cls-21{font-size:55px;fill:#fff;font-family:MouseMemoirs-Regular, Mouse Memoirs;letter-spacing:0.04em;}.cls-22{letter-spacing:0.04em;}.cls-23{letter-spacing:0.04em;}.cls-24{letter-spacing:0.04em;}.cls-25{fill:#262626;}.cls-26{fill:#d6ceae;}.cls-27{fill:#3f3f3f;}.cls-28{fill:#bcb49b;}.cls-29{fill:#e2ac13;}.cls-30{fill:#f4bd0f;}</style></defs><g id="Layer_2" data-name="Layer 2"><g id="Layer_1-2" data-name="Layer 1"><path class="cls-1" d="M17,46.87H12.81L8,49.17s-1.55,2.56-2.68,8.58A363.82,363.82,0,0,0,0,119c.16,32,3.92,100.51,3.92,100.51l10,102.38L16,324.57l24.17,2.73L119,324.57l222.64-2.89,133.49-6.21,12.64-31.15s2.06-109.53,2.81-123.45.21-60.13.21-60.13.15-3.12-1.23-32.17S486,29.08,486,29.08l-60.47,5.79Z"/><polygon class="cls-2" points="472.79 315.72 23.17 315.72 23.17 44.4 472.79 42.26 472.79 315.72"/><path class="cls-3" d="M36.11,287.14s3.4,13.77,24.34,12.75c5.91-.29,27.18-1.55,55.71-3.13,66.94-3.7,173.85-9.11,216.06-7.6,3.48.13,6.52.3,9.06.52,46.49,4.09,97.63,9.94,111.28,1.53s14-10.35,14-10.35l-3.89,25.93-134.47-2.42-175,7.7L45.3,315.89l-7.06-5Z"/><path class="cls-3" d="M457.69,63.66,445.31,44.49s-3.7-6.22-5.49-6.55-23.87.2-25.66,0-37.28,0-37.28,0L101.15,40.3,67.44,46l-35,8.55L32,62.74l-3,.41-1.54,4.08,1.07,13A22.86,22.86,0,0,1,38.76,68.56c1.1-.37,2.31-.75,3.66-1.13,11.74-3.26,42.09-7.68,42.09-7.68s6-2.81,9.92,7.19,5.56,17.63,12,19.3,34.28,1.14,50.11,0,86.29-1.64,86.29-1.64,108.91-1,142.79,1.64,30.19-26.86,30.19-26.86.26-3.87,3.19-4.84,10.34,0,10.34,0,3.55-.11,4.2,5.21.4,9.65,5,13.36,12.39,3.31,12.39,3.31,6.92.51,8,8.94Z"/><path class="cls-4" d="M484.45,34.14l-41.87-4.76L229,31.9,63,35.67l-38.47,7L14.19,47.16,10.58,57.38,7.51,87.08,5.3,122.31l4.77,100.77L20.85,324.87H42.58L473,314.1l11.75-29.87.65-69.23,2-111ZM462.66,307.08l-86.13-3.49-135.32.94L100,310.4l-61.78.76L30.07,220,25.73,116.87,29,74.48l2.72-6.89,8.12-4,32.39-7L119.51,53,397.8,47.16l57.12,3.32,7.74,66.64,3,94.73,3.12,54.09Z"/><polygon class="cls-5" points="403.13 44.89 437.62 46.49 436.28 49.23 402.27 47.41 403.13 44.89"/><path class="cls-6" d="M25.73,86.7s-7.41-2.89-11.83,7,1.87,24.94,1.78,37.28-.25,20.17-1,27.83.47,13.36,4.36,16.42,6.86,3,6.86,3L25.75,175A4.62,4.62,0,0,1,20,172c-1.66-4.37-2-3.39-2.3-7s.23-17.21.26-20.17.51-15.32.51-15.32a88.4,88.4,0,0,0-1.79-15.83,66.51,66.51,0,0,1-1.53-14.3s-.52-7.09,7.28-10.09c0,0,3.09-1.14,3.2-.25Z"/><path class="cls-6" d="M487.19,115.39s-3.59-5.28-8.53-6.48-9.89,2.41-8.85,6c1.7,5.79,6,8.51,6,16.51s-2,11.07-3.36,18.56,1,33.27,3.87,39-3.57,12.72,0,21.57,9.13,7.32,9.13,7.32l0-3.15s-6.35-1-6.86-9.19c0,0,2.13-9.28,1.95-12.51a22.85,22.85,0,0,0-2.74-9.79c-1.6-2.64-3.81-29.44-1.85-33.36s4-18.89,4-18.89-2.47-10.13-6-14.73c-2.28-2.93,4.53-3.79,4.53-3.79S486,115.86,487,119a1.89,1.89,0,0,1,.1.6c-.06,3.15.07-4.16.07-4.16"/><path class="cls-6" d="M8.71,194.18a10.25,10.25,0,0,0,7.06,6.14,21,21,0,0,0,11.05-.65v2.69s-8.24,1.79-11.88.58a14.52,14.52,0,0,1-6-4.17Z"/><path class="cls-7" d="M19.41,313.46s4.53,2.77,15.51,3.28,174.13-7.91,174.13-7.91,66.63-2,88.85-1.53,78.32-.53,78.32-.53L469.53,309a9.78,9.78,0,0,0,4.05-1.17,8.1,8.1,0,0,0,3.29-3.48l-4.46,11.29L108.58,327.3l-83.88.93-4.39-8.43Z"/><path class="cls-6" d="M14.19,47.16S21,45.77,25,51,31,65.51,31,65.51l5-2.94s-7.47-9-9.17-14.68-2.22-5.24-2.22-5.24Z"/><path class="cls-6" d="M56.46,36.86c.58.91,6.88,9.25,16.07,8.48s22.22-5.45,26.64-5.62a20.66,20.66,0,0,1,8.09,1.41l-1.62-3.39-2-.61s.76-.39-8.52.12-17.24,8.63-26.64,3.88S63,35.67,63,35.67Z"/><path class="cls-6" d="M421.73,29.62s-2.64,19.82-25.28,9.26l4.17-1.63a19,19,0,0,0,8.5,2c4.44-.18,9.23-6.59,8.52-8.26s-.43-1.28-.43-1.28Z"/><path class="cls-6" d="M470.27,242.54s1.24-6.65,6.69-8.69,8.31-1.19,8.31-1.19l0,3.15s-4.43-2-6.79-.26-7.6,7.46-7.83,11.09Z"/><path class="cls-6" d="M460.24,76.54s6.26,7,12.51,8a76.61,76.61,0,0,1,14,4.25l.18,4.44s-3.45-4.93-17.27-6c0,0-6,1.18-9.43-7.15Z"/><path class="cls-8" d="M39,61.11l-4.59,2.18a40.13,40.13,0,0,0-3.92,2.56l-3.57,8.68-3.75,41.53,4.09,93.62,8,96,3,5.19-2.13-23.73-2.52-28.09L31.3,233.47l-1.23-13.75-.53-12.55-.92-21.83L27.54,159.6l-.72-17.08L26.29,130l-.56-13.41L29,74.19l2.72-6.9,8.12-4,32.39-7,33.06-2.5L106.34,51s-30.57,2.17-34.59,3.12-32.75,7-32.75,7"/><path class="cls-8" d="M469.6,235l-2-34.59L466,161.89l-.51-45.19L459.9,73.92,458,68.45l-2,.63c.76,2.56,1.82,5.61,1.82,5.61l4.9,42.14,1.4,44.51,1.58,50.21L467,235.9l1.72,29.75-6.1,41.14,1.19,2.68,1.92-1.53,6.64-41.37Z"/><path class="cls-7" d="M459.25,71l.65,1.86.34,2.62s22.08,1.78,26,.31l-.22-6Z"/><path class="cls-9" d="M486.25,75.79s3.13-.92,3.58-1.94l-.15-3.22H486Z"/><polygon class="cls-10" points="457.76 73.63 457.96 75.32 460.24 75.48 459.88 72.82 459.14 70.76 456.8 70.76 457.76 73.63"/><polygon class="cls-11" points="29.54 207.17 27.18 207.98 27.51 215.3 29.81 214.79 29.54 207.17"/><path class="cls-12" d="M396.2,8.13l3.64,1.15a12.23,12.23,0,0,1,4.79,8c.67,5.27-3.32,14.75-3.32,14.75a12.33,12.33,0,0,0-.07,4.53,35.53,35.53,0,0,0,2.43,5.68L407.88,51a28.57,28.57,0,0,1,1,10.79c-.73,5.1-4.21,8.2-7.53,10.15s-10.21,2.47-10.21,2.47-21,.89-33,.72-44.81-.45-44.81-.45-47.21.08-48.32.13c-.64,0-33-.73-67.47,0-24.88.52-50.81,1.7-66.83,2.68L113.44,77s-3.81-.51-7.6-5.74-4.21-7-4.21-7a16.78,16.78,0,0,1-.72-11.62,48.22,48.22,0,0,1,4.48-10,3.16,3.16,0,0,0,0-2.82c-.76-1.38-3-8-3-8s-.57-7.1,0-10,3.3-5.44,3.3-5.44l2.55-.64Z"/><path class="cls-13" d="M104.36,21.4l3.25-5.92s1.83-1,6.68-1.66,34-3.32,34-3.32,37.79-1.66,85,0a872.07,872.07,0,0,0,88-1.53S366.16,6,381.1,6.67s15.58,1.15,15.58,1.15,6.38,7,5.48,11.1-4.37,13.38-4.37,13.38-.55,1.51-4.69,2.33c-3.21.64-2.23.8-2.23.8l2.78-.25,3.73-.74c.85-.22.5,1.84,2.74,6.31S406,53,406,53s.9,5.87,0,8.43-1.78,6.51-8.17,8.68c-3.33,1.13-21.42,1.46-37.95,1.52-15.13.06-28.94-.12-28.94-.12s-110.81-.62-134.13,0-67.06,2.84-67.06,2.84l-16.85-.85s-1.28,0-3.58-2.72a79.54,79.54,0,0,1-5.62-8s-1.38-5.45-.67-8.5a25.27,25.27,0,0,1,2.38-6s.83-2.16,1.68-3.82c.66-1.28,1.78-.87,2.91-.86,2.69,0,3.26.1,3.26.1s1.64.13.4-.38a8.66,8.66,0,0,0-2.12-.68,11.47,11.47,0,0,1-2.6-.94,34.33,34.33,0,0,1-3.19-7.54c-1.45-4.77-1.38-12.72-1.38-12.72"/><path class="cls-14" d="M103,54.29s10.67,6.12,32.12,4.84,115.4-6.64,170-6.38,95.95-10,95.95-10L406,53s-27.54,0-66.35,3.82-79.41-.25-143.49,4.09-76,1.82-93.14-1.77a15.07,15.07,0,0,1,0-4.86"/><path class="cls-14" d="M104.36,21.4s2.31,2.75,16,2.88S166,21.4,166,21.4s46.6-4.4,65.49-2.1,49.41,4.47,74.55,3.7,94.85-9.2,94.85-9.2a9.92,9.92,0,0,1,1.32,4.05,4.67,4.67,0,0,1-.12,1.27s-13.45-.24-28.56,1.12-25.15.68-66.68,4.76c0,0-58.21-.68-71.32-2.72s-70.12,1-70.12,1-38.22,2.81-44.52,3.41-16.4-.58-16.4-.58l-.16-2.53Z"/><path class="cls-14" d="M156.93,43.9s24.17,0,42-6,90,6,95.32,7,18.55-1.87,20.42-3.07c0,0-11.91,6.3-21.1,5.79s-57.54-11.06-93.28-6.47-43.4,2.73-43.4,2.73"/><path class="cls-15" d="M123.74,28.27a6.22,6.22,0,1,1-6.22-6.21,6.22,6.22,0,0,1,6.22,6.21"/><path class="cls-16" d="M121.82,27.53a6.13,6.13,0,1,1-6.13-6.13,6.13,6.13,0,0,1,6.13,6.13"/><path class="cls-15" d="M121.78,59.88a6.22,6.22,0,1,1-6.22-6.22,6.21,6.21,0,0,1,6.22,6.22"/><path class="cls-16" d="M119.87,59.13A6.13,6.13,0,1,1,113.74,53a6.13,6.13,0,0,1,6.13,6.13"/><path class="cls-15" d="M382.71,57.42a6.22,6.22,0,1,1,6.86,5.5,6.21,6.21,0,0,1-6.86-5.5"/><path class="cls-16" d="M384.69,58a6.13,6.13,0,1,1,6.77,5.42A6.13,6.13,0,0,1,384.69,58"/><path class="cls-15" d="M378.83,21a6.22,6.22,0,1,1,6.86,5.49A6.21,6.21,0,0,1,378.83,21"/><path class="cls-16" d="M380.81,21.54A6.13,6.13,0,1,1,387.58,27a6.13,6.13,0,0,1-6.77-5.42"/><path class="cls-17" d="M104.59,21.09s2.57-4,5.88-4.78,14.3-2.3,14.3-2.3l23.81-2.36,32.23-.7,75.92,1.66,36.77-.34S391.88,7,395.79,9a14.21,14.21,0,0,1,5.36,4.46,32.68,32.68,0,0,0-4.24-6s-18.33-2.72-70.19.82c-17.54,1.19-33,2-46.56,2.29-8.71.15-16.57.14-23.52,0-14.24-.21-24.65-.87-31-.71-.13-.07-6.37-.15-9.36-.23-1.7,0-16.89-.31-32.6-.29-14.89,0-30.25.31-35.18.77-8.52.79-27.83,2-36.79,3.79a18.37,18.37,0,0,0-3.85,1.19Z"/><path class="cls-18" d="M16.72,285.93s7.46,2.05,10.22,2.73c0,0,3.27-8.21,5.87-12.36l1.25,15-2.49,9.22L23.49,297l-6.2-5.73Z"/><path class="cls-19" d="M16.72,320.38s3.66,2.37,14.62,2.75a307,307,0,0,0,41.42-2,49.13,49.13,0,0,0,13.88-3.75l-70.45,3"/><path class="cls-19" d="M367.57,309.68s2.13,23.5,70,25.07c0,0,33.28-3.63,57.56-14.14l-3.32-7.11L470,312.42l-90.89-3.17Z"/><path class="cls-12" d="M15.09,320.57a7.13,7.13,0,0,0-5.95,4.25C7.1,329,6,332,6,332s-1.91,6,.13,7.88,4.51,3.47,5.28,7.21-2.55,8.24-2.55,8.24-3.05,7.91,7.34,7.91,66.74-.68,86-1.53,71.24-1.47,71.24-1.47l82.08-1.3c10.22-.17,115.92.35,115.92.35s54-.52,90.76-1.54l26.62-.89s10-.83,9.38-12.57a16.85,16.85,0,0,0-2.92-6.45c-2.13-2.56,1-8.68,1-8.68s1.94-7,.89-9.83c-.64-1.77-4.21-6.17-4.21-6.17a7,7,0,0,0-3.06-.73c-1.61.21-66.47,9.15-66.47,9.15l-400.26,3.7Z"/><path class="cls-13" d="M10.41,340.32A8.19,8.19,0,0,1,8.62,332c1.7-5,3.06-8.43,3.06-8.43a5.17,5.17,0,0,1,4.51-3.15c3.41-.17,80.09-3.4,80.09-3.4s83.91-4.61,124.77-5.41,160.08-2.34,160.08-2.34,92.3,1.79,101.23,2.94a41.53,41.53,0,0,1,7.54.25c2.29.51,5.23,8.17,5.23,8.17a15.82,15.82,0,0,1-1.66,9.2,10.77,10.77,0,0,0-1.13,8.17l2.9,6.63s.4,4.22-1.9,6.51a14.49,14.49,0,0,1-4.85,3.2s-128.47,2.85-154.17,2-159.15,1.19-159.15,1.19-140.25,3.91-161.7,2.38c0,0-4.08-2.21,0-8.17s-3.06-11.4-3.06-11.4"/><path class="cls-14" d="M9,331s.69,2.23,11.29,1.72,82.08-9.19,126.63-9.32,126.9,1.87,126.9,1.87,35,2,118.08-1.87,103.28-2.81,103.28-2.81a13.94,13.94,0,0,1-.12,4.68s-39.33-1.76-102.82,1.36-25.7.9-118.8,2-83.41-5.37-152,0-93,3.74-113.24,7.74c0,0-.38-3.47.8-5.38"/><path class="cls-14" d="M12,354.54s113.05,5,202.66-7.24,278.68,3.82,278.68,3.82a9.89,9.89,0,0,0,1.91-6.51s-103.65-4.72-163.91-5.49-122.55,5.37-125.1,5.62-110,14.84-191.54,2.57a7,7,0,0,1-.95,4A12.18,12.18,0,0,0,12,354.54"/><path class="cls-14" d="M301.64,310.33s6.55,5.31,37.28,5S415.34,310,415.34,310l-6.89-.3s-53,3.53-70.3,2.74-29.36-2.2-29.36-2.2Z"/><polygon class="cls-18" points="472.31 265.21 471.88 260.7 485.27 262.28 484.94 268.83 472.31 265.21"/><polygon class="cls-20" points="485 262.24 484.94 271.81 488.06 268.37 488.16 263.04 485 262.24"/><polygon class="cls-11" points="471.88 260.7 468.44 260.19 468.89 267.72 472.68 267.38 472.31 265.21 471.88 260.7"/><text class="cls-21" transform="translate(134.23 60.83)">Ca<tspan class="cls-22" x="40.55" y="0">r</tspan><tspan class="cls-23" x="60.79" y="0">a </tspan><tspan class="cls-24" x="93.37" y="0">B</tspan><tspan x="114.53" y="0">ermain</tspan></text><path class="cls-25" d="M492.07,0s13.87,3.53,14.16,14.48S506.14,31,506.14,31V55.16s1.38,15.51-16.8,15.51H449.26s-13.08-1.86-13.78-17.79S492.07,0,492.07,0"/><path class="cls-26" d="M487.58,64.84H449.16a13.3,13.3,0,0,1-13.27-13.25V13.25A13.3,13.3,0,0,1,449.16,0h38.42a13.3,13.3,0,0,1,13.27,13.25V51.59a13.3,13.3,0,0,1-13.27,13.25"/><path class="cls-27" d="M487.94,0H449.25a13.41,13.41,0,0,0-13.36,13.37V52.05a13.41,13.41,0,0,0,13.36,13.37h38.69a13.41,13.41,0,0,0,13.37-13.37V13.37A13.41,13.41,0,0,0,487.94,0m2.28,42.66C490.22,50,485.9,56,478.55,56H458.64c-7.35,0-11.75-6-11.75-13.37V22.75c0-7.35,4.4-13.36,11.75-13.36h19.91c7.35,0,11.81,6,11.81,13.36Z"/><path class="cls-28" d="M486.52,30.32s-.1,5.21,0,7.2-8.82,14.33-8.82,14.33-16.87,1-19.06-.38-5.78-.48-5.78,0,2.48,3.5,2.48,3.5l.72.2s.2.28,5.32.31,16,0,16,0l12.29-16.41V29Z"/><path class="cls-29" d="M484.92,35.53a50,50,0,0,0,11.73-9s1.71-3.23-2.27-8.63c0,0-3.89-7.3-9.67-4.27a121.77,121.77,0,0,0-12,8.28C466.26,14.81,461,9.16,461,9.16s-1.42-2.07-7.8,3.05-6.71,5-5.23,8.6c.29.69,4.45,5.86,10.06,12.38-8.41,6.58-14.54,11.57-14.54,11.57s-3.45,2.22,1.19,9,5.31,6.08,9,4.86c.84-.28,7.26-5.33,15.83-11.72A132.71,132.71,0,0,0,481.5,61a12.19,12.19,0,0,0,10.91-2.55S498.48,53.59,495,48c-1.52-2.45-5.23-6.92-10.12-12.51"/><path class="cls-30" d="M483.12,31.33c6.5-4.89,11.42-8.63,11.42-8.63S497,19.57,493,14.17c0,0-3.89-7.3-9.67-4.27a124.06,124.06,0,0,0-12,8.27C464.9,11.1,459.61,5.46,459.61,5.46s-1.43-2.07-7.8,3.05-6.05,4.19-4.57,7.74c.28.69,4.73,6,10.34,12.49-8.4,6.59-15.48,12.32-15.48,12.32s-2.17,1.27,2.47,8,3.74,6.34,7.4,5.12c.83-.28,8.46-5.87,17-12.26,6.87,7.88,12.71,14.51,12.71,14.51s3.3,2.23,8.4-2.13c0,0,7-4.41,3.55-10-1.52-2.45-5.66-7.42-10.55-13"/></g></g></svg>