<svg xmlns="http://www.w3.org/2000/svg" xmlns:xlink="http://www.w3.org/1999/xlink" viewBox="0 0 548.01 229.61"><defs><style>.cls-1{font-size:24px;fill:#1c1c1c;font-family:GeorgeRoundedSemibold, George Rounded;}.cls-2{letter-spacing:0.03em;}.cls-3{letter-spacing:0.03em;}.cls-4{letter-spacing:0.03em;}.cls-5{letter-spacing:-0.03em;}.cls-6{letter-spacing:-0.05em;}.cls-7{letter-spacing:0.02em;}.cls-8{letter-spacing:-0.1em;}.cls-9{letter-spacing:-0.05em;}.cls-10{letter-spacing:0em;}.cls-11{letter-spacing:-0.1em;}.cls-12{letter-spacing:-0.03em;}.cls-13{letter-spacing:-0.05em;}.cls-14{letter-spacing:0.02em;}</style></defs><g id="Layer_2" data-name="Layer 2"><g id="Layer_1-2" data-name="Layer 1"><text class="cls-1" transform="translate(0 20.4)">1. Sus<tspan class="cls-2" x="54.79" y="0">u</tspan><tspan x="67.25" y="0">n j</tspan><tspan class="cls-3" x="94.01" y="0">alu</tspan><tspan x="124.27" y="0">r deng</tspan><tspan class="cls-4" x="191.56" y="0">a</tspan><tspan x="204.36" y="0">n</tspan><tspan x="0" y="28.8" xml:space="preserve">   mem</tspan><tspan class="cls-5" x="71.3" y="28.8">u</tspan><tspan class="cls-6" x="82.32" y="28.8">t</tspan><tspan class="cls-7" x="90.93" y="28.8">a</tspan><tspan x="103.49" y="28.8">r </tspan><tspan class="cls-8" x="119.16" y="28.8">k</tspan><tspan class="cls-9" x="129.05" y="28.8">ot</tspan><tspan class="cls-2" x="149.78" y="28.8">a</tspan><tspan class="cls-10" x="162.57" y="28.8">k</tspan><tspan x="0" y="57.6" xml:space="preserve">   me</tspan><tspan class="cls-6" x="53.09" y="57.6">n</tspan><tspan class="cls-10" x="63.62" y="57.6">yus</tspan><tspan class="cls-2" x="99.26" y="57.6">u</tspan><tspan class="cls-10" x="111.72" y="57.6">n j</tspan><tspan class="cls-2" x="138.48" y="57.6">alu</tspan><tspan x="168.74" y="57.6">r</tspan><tspan x="0" y="86.4">2. k</tspan><tspan class="cls-2" x="36.79" y="86.4">l</tspan><tspan class="cls-7" x="41.81" y="86.4">i</tspan><tspan x="47.13" y="86.4">k </tspan><tspan class="cls-11" x="66.62" y="86.4">k</tspan><tspan class="cls-9" x="76.51" y="86.4">ot</tspan><tspan class="cls-2" x="97.25" y="86.4">a</tspan><tspan x="110.04" y="86.4">k </tspan><tspan class="cls-2" x="129.53" y="86.4">u</tspan><tspan class="cls-6" x="141.98" y="86.4">n</tspan><tspan x="152.52" y="86.4">t</tspan><tspan class="cls-2" x="162.33" y="86.4">u</tspan><tspan class="cls-10" x="174.79" y="86.4">k</tspan><tspan x="0" y="115.2" xml:space="preserve">    mem</tspan><tspan class="cls-12" x="78.5" y="115.2">u</tspan><tspan class="cls-13" x="89.52" y="115.2">t</tspan><tspan class="cls-7" x="98.13" y="115.2">a</tspan><tspan x="110.69" y="115.2">r </tspan><tspan class="cls-11" x="126.36" y="115.2">k</tspan><tspan class="cls-9" x="136.25" y="115.2">ot</tspan><tspan class="cls-2" x="156.98" y="115.2">a</tspan><tspan x="169.77" y="115.2">k </tspan><tspan x="0" y="144">3. A</tspan><tspan class="cls-4" x="41.11" y="144">m</tspan><tspan x="60.05" y="144">b</tspan><tspan class="cls-14" x="73.37" y="144">i</tspan><tspan class="cls-10" x="78.69" y="144">l o</tspan><tspan class="cls-11" x="103.51" y="144">b</tspan><tspan x="114.43" y="144">jek </tspan><tspan class="cls-9" x="155.01" y="144">y</tspan><tspan class="cls-3" x="167.01" y="144">a</tspan><tspan x="179.8" y="144">ng </tspan><tspan x="0" y="172.8" xml:space="preserve">    ada </tspan><tspan class="cls-2" x="73.46" y="172.8">d</tspan><tspan x="87.5" y="172.8">i j</tspan><tspan class="cls-2" x="107.37" y="172.8">alu</tspan><tspan x="137.64" y="172.8">r</tspan><tspan x="0" y="201.6"> </tspan></text><image width="1005" height="550" transform="translate(207.33 10.53) scale(0.34)" xlink:href="../../../../INterface/puzzle%20path.png"/></g></g></svg>