<svg xmlns="http://www.w3.org/2000/svg" xmlns:xlink="http://www.w3.org/1999/xlink" viewBox="0 0 521.22 263.64"><defs><style>.cls-1{font-size:24px;fill:#1c1c1c;font-family:GeorgeRoundedSemibold, George Rounded;}.cls-2{letter-spacing:-0.02em;}.cls-3{letter-spacing:-0.03em;}.cls-4{letter-spacing:-0.05em;}.cls-5{letter-spacing:0.03em;}.cls-6{letter-spacing:-0.05em;}.cls-7{letter-spacing:0em;}.cls-8{letter-spacing:-0.08em;}.cls-9{letter-spacing:0.03em;}.cls-10{letter-spacing:-0.03em;}.cls-11{letter-spacing:0.03em;}.cls-12{letter-spacing:-0.05em;}.cls-13{letter-spacing:0.02em;}.cls-14{letter-spacing:0.02em;}.cls-15{letter-spacing:-0.1em;}.cls-16{letter-spacing:0em;}.cls-17{letter-spacing:-0.08em;}.cls-18{letter-spacing:-0.02em;}</style></defs><g id="Layer_2" data-name="Layer 2"><g id="Layer_1-2" data-name="Layer 1"><text class="cls-1" transform="translate(0 54.43)">1. Ba<tspan class="cls-2" x="45.05" y="0">c</tspan><tspan x="56.04" y="0">a pe</tspan><tspan class="cls-3" x="101.9" y="0">r</tspan><tspan class="cls-4" x="109.65" y="0">t</tspan><tspan class="cls-5" x="118.27" y="0">a</tspan><tspan class="cls-6" x="131.06" y="0">ny</tspan><tspan class="cls-7" x="153.6" y="0">a</tspan><tspan class="cls-5" x="165.67" y="0">a</tspan><tspan x="178.46" y="0">n</tspan><tspan x="0" y="28.8">2.J</tspan><tspan class="cls-8" x="29.3" y="28.8">aw</tspan><tspan class="cls-9" x="55.92" y="28.8">a</tspan><tspan class="cls-10" x="68.71" y="28.8">b</tspan><tspan class="cls-11" x="81.31" y="28.8">a</tspan><tspan x="94.1" y="28.8">n pe</tspan><tspan class="cls-3" x="139.63" y="28.8">r</tspan><tspan class="cls-12" x="147.38" y="28.8">t</tspan><tspan class="cls-11" x="156" y="28.8">a</tspan><tspan class="cls-6" x="168.79" y="28.8">ny</tspan><tspan x="191.33" y="28.8">a</tspan><tspan class="cls-5" x="203.4" y="28.8">a</tspan><tspan class="cls-7" x="216.19" y="28.8">n</tspan><tspan x="0" y="57.6" xml:space="preserve">    deng</tspan><tspan class="cls-9" x="80.42" y="57.6">a</tspan><tspan x="93.21" y="57.6">n me</tspan><tspan class="cls-6" x="143.64" y="57.6">n</tspan><tspan x="154.17" y="57.6">yus</tspan><tspan class="cls-11" x="189.81" y="57.6">u</tspan><tspan x="202.27" y="57.6">n</tspan><tspan x="0" y="86.4" xml:space="preserve">    h</tspan><tspan class="cls-5" x="40.54" y="86.4">u</tspan><tspan x="52.99" y="86.4">ruf</tspan><tspan x="0" y="115.2">3. J</tspan><tspan class="cls-13" x="36.91" y="115.2">i</tspan><tspan class="cls-6" x="42.24" y="115.2">k</tspan><tspan x="53.33" y="115.2">a berha</tspan><tspan class="cls-14" x="131.47" y="115.2">si</tspan><tspan class="cls-7" x="147.98" y="115.2">l</tspan><tspan x="0" y="144" xml:space="preserve">    me</tspan><tspan class="cls-15" x="60.29" y="144">n</tspan><tspan class="cls-16" x="69.62" y="144">j</tspan><tspan class="cls-17" x="77.45" y="144">aw</tspan><tspan class="cls-9" x="104.06" y="144">a</tspan><tspan class="cls-7" x="116.85" y="144">b</tspan><tspan x="0" y="172.8" xml:space="preserve">    d</tspan><tspan class="cls-5" x="42.12" y="172.8">a</tspan><tspan x="54.91" y="172.8">lam 1 menit</tspan><tspan x="0" y="201.6" xml:space="preserve">    d</tspan><tspan class="cls-5" x="42.12" y="201.6">a</tspan><tspan x="54.91" y="201.6">p</tspan><tspan class="cls-18" x="68.23" y="201.6">a</tspan><tspan class="cls-7" x="79.82" y="201.6">t ha</tspan><tspan class="cls-5" x="120.65" y="201.6">d</tspan><tspan x="134.69" y="201.6">i</tspan><tspan class="cls-5" x="139.53" y="201.6">a</tspan><tspan x="152.33" y="201.6">h </tspan></text><image width="944" height="871" transform="translate(241.53) scale(0.3)" xlink:href="../../../../INterface/puzzle%20susun%20kata.png"/></g></g></svg>